<svg width="23" height="31" viewBox="0 0 23 31" fill="none" xmlns="http://www.w3.org/2000/svg">
<g clip-path="url(#clip0_329_5924)">
<path d="M11.5 31C11.7464 31 11.9929 30.8776 12.1161 30.7145C12.5679 30.1842 23 17.4987 23 11.4211C23 5.13947 17.825 0 11.5 0C5.175 0 0 5.13947 0 11.4211C0 17.4987 10.4321 30.1842 10.8839 30.7145C11.0071 30.8776 11.2536 31 11.5 31ZM11.5 1.63158C16.9214 1.63158 21.3571 6.03684 21.3571 11.4211C21.3571 16.1118 13.7589 26.0237 11.5 28.8789C8.25536 24.8 1.64286 15.6632 1.64286 11.4211C1.64286 6.03684 6.07857 1.63158 11.5 1.63158Z" fill="#2B2A29"/>
<path d="M17 10.5C17 7.475 14.75 5 12 5C9.25 5 7 7.475 7 10.5C7 13.525 9.25 16 12 16C14.75 16 17 13.525 17 10.5ZM8.66667 10.5C8.66667 8.48333 10.1667 6.83333 12 6.83333C13.8333 6.83333 15.3333 8.48333 15.3333 10.5C15.3333 12.5167 13.8333 14.1667 12 14.1667C10.1667 14.1667 8.66667 12.5167 8.66667 10.5Z" fill="#2B2A29"/>
</g>
<defs>
<clipPath id="clip0_329_5924">
<rect width="23" height="31" fill="white"/>
</clipPath>
</defs>
</svg>
