<svg width="31" height="31" viewBox="0 0 31 31" fill="none" xmlns="http://www.w3.org/2000/svg">
<path d="M14.348 8.73463C13.9192 8.73463 13.5714 8.38684 13.5714 7.95804C13.5714 7.52924 13.9192 7.18146 14.348 7.18146C16.5448 7.18146 18.5215 7.86647 20.1103 9.04851C21.7414 10.2623 22.9582 11.9981 23.5772 14.0514C24.9464 18.5907 22.0681 22.5221 17.7889 23.812C16.4642 24.2113 15.048 24.3306 13.6898 24.1149C12.4924 23.9247 11.394 23.4347 10.4541 22.7427C9.28743 21.8838 8.35632 20.7079 7.77345 19.4056C6.75825 17.138 6.81856 14.526 8.31715 12.4908C8.8987 11.7014 9.68541 11.0415 10.6645 10.5911C11.5529 10.183 12.595 9.94794 13.7779 9.94794C16.4541 9.94794 18.3652 11.6569 19.2228 13.6592C20.5624 16.7849 19.2549 20.2003 15.4816 20.2003C13.7431 20.2003 12.0385 18.9227 11.8576 17.156C11.7286 15.8894 12.4013 14.8359 13.4301 14.4023C14.0526 14.1399 15.5463 13.9066 15.6428 14.898C15.6841 15.3233 15.3733 15.7028 14.948 15.7441C14.2045 15.8181 13.3086 16.1197 13.3984 16.9984C13.4988 17.9876 14.5558 18.6471 15.4816 18.6471C16.8411 18.6471 17.6432 18.0387 17.9752 17.1956C18.3392 16.2724 18.179 15.1577 17.7973 14.2658C17.1585 12.7743 15.7462 11.5011 13.7779 11.5011C12.8208 11.5011 11.9949 11.6829 11.3073 11.999C10.58 12.3336 9.99709 12.8223 9.56654 13.4065C8.39594 14.9957 8.39814 17.012 9.18749 18.7743C9.66296 19.8371 10.4211 20.7946 11.3698 21.4933C12.1213 22.0462 12.9916 22.4371 13.9329 22.5864C15.0515 22.7638 16.2314 22.6617 17.346 22.3258C18.5862 21.9515 19.7361 21.289 20.6223 20.4023C22.2503 18.7726 22.7509 16.6819 22.091 14.4943C21.5693 12.7641 20.551 11.3065 19.1885 10.2926C17.8624 9.30649 16.2027 8.73463 14.348 8.73463Z" fill="#2B2A29"/>
<path fill-rule="evenodd" clip-rule="evenodd" d="M16.5158 31C16.1328 31 15.7501 30.753 15.7533 30.2582C15.7589 29.1289 15.8497 27.9816 15.6832 26.8604C15.597 26.2779 16.0975 25.8954 16.5408 25.8954C16.8354 25.8954 17.1043 26.0632 17.1615 26.4523C17.35 27.7198 17.2931 28.9806 17.2861 30.2582C17.2835 30.753 16.8992 31 16.5158 31ZM7.4041 29.2963C6.8419 29.2963 6.32853 28.5276 6.82555 27.9637C7.68934 26.9828 8.37738 25.8659 9.13989 24.8084C9.31026 24.5716 9.54896 24.4735 9.78362 24.4735C10.336 24.4735 10.8709 25.0184 10.4642 25.582C9.62508 26.7473 8.86168 27.9672 7.91031 29.0479C7.75579 29.2232 7.578 29.2963 7.4041 29.2963ZM24.3022 29.0044C24.0781 29.0044 23.8647 28.8863 23.7436 28.6007C23.2435 27.415 22.6694 26.2269 21.8193 25.2504C21.3263 24.6838 21.8387 23.9156 22.3987 23.9156C22.5721 23.9156 22.75 23.9891 22.9045 24.1662C23.848 25.2504 24.5122 26.5082 25.0688 27.8263C25.3289 28.4436 24.7905 29.0044 24.3022 29.0044ZM29.7489 22.8427C29.6291 22.8427 29.5028 22.8119 29.3747 22.7416C28.2949 22.1503 27.2286 21.5444 26.0522 21.1628C25.2022 20.8885 25.4527 19.6439 26.2115 19.6439C26.2891 19.6439 26.3723 19.6568 26.4594 19.6853C27.763 20.1062 28.9526 20.7622 30.1482 21.4168C30.8874 21.8214 30.4353 22.8427 29.7489 22.8427ZM1.93802 21.8615C1.23842 21.8615 0.776263 20.833 1.52858 20.4439C2.75603 19.8086 4.10578 19.5243 5.41149 19.1002C5.4992 19.0721 5.58098 19.0593 5.6585 19.0593C6.41786 19.0593 6.66977 20.3043 5.81918 20.5795C4.64545 20.9598 3.4053 21.1966 2.30255 21.7682C2.17797 21.8328 2.05429 21.8615 1.93802 21.8615ZM5.45025 14.668C4.1351 14.668 2.88941 14.5307 1.41521 14.5016C-0.322601 14.4679 -0.270874 12.9533 1.59729 12.956C3.16987 12.9586 4.07419 13.0923 5.4203 13.1341C6.39672 13.1653 6.40994 14.668 5.45025 14.668ZM30.0523 14.6675C28.8848 14.6675 27.7163 14.6675 26.5484 14.6675C25.5587 14.6675 25.5587 13.1341 26.5484 13.1341C27.7163 13.1341 28.8848 13.1341 30.0523 13.1341C31.0423 13.1341 31.0423 14.6675 30.0523 14.6675ZM7.22882 9.75653C7.06109 9.75653 6.88808 9.70293 6.72878 9.57559C5.81125 8.84315 4.76701 8.30298 3.65847 7.9221C2.81944 7.63508 3.06331 6.39795 3.80996 6.39795C3.8905 6.39795 3.97592 6.41204 4.06702 6.44287C5.44056 6.91484 6.67719 7.58451 7.81304 8.49047C8.42406 8.97918 7.86714 9.75653 7.22882 9.75653ZM24.5216 9.73414C23.8172 9.73414 23.594 8.52304 24.397 8.19551C25.5438 7.73108 26.4952 6.89672 27.5239 6.22935C27.6604 6.14088 27.7947 6.10212 27.921 6.10212C28.5651 6.10212 28.9891 7.10497 28.2979 7.55279C27.1414 8.30298 26.094 9.15168 24.8042 9.67475C24.7034 9.71564 24.6086 9.73414 24.5216 9.73414ZM11.1624 6.65249C10.8559 6.65249 10.5483 6.49181 10.4258 6.12113C10.0055 4.85404 9.22847 3.74513 8.55529 2.60537C8.20612 2.01324 8.73623 1.46162 9.26094 1.46162C9.49346 1.46162 9.72549 1.56982 9.8795 1.83142C10.6249 3.09272 11.4401 4.31299 11.9038 5.71344C12.0922 6.28181 11.6278 6.65249 11.1624 6.65249ZM20.6738 6.1458C20.1984 6.14529 19.7427 5.78126 19.9663 5.22611C20.4057 4.14085 20.886 3.07421 21.4077 2.02507C21.5451 1.749 21.7678 1.63462 21.9963 1.63462C22.5008 1.63462 23.0326 2.19191 22.7315 2.79941C22.2697 3.72964 21.8348 4.67185 21.4456 5.63467C21.3016 5.99128 20.9838 6.1458 20.6738 6.1458ZM15.7114 5.50961C15.4187 5.50961 15.1518 5.34187 15.0991 4.95307C14.9005 3.50253 14.9837 2.09415 15.1967 0.650655C15.254 0.261972 15.5225 0.0942383 15.8167 0.0942383C16.26 0.0942383 16.7605 0.477138 16.6747 1.05921C16.5052 2.20651 16.4201 3.39155 16.5787 4.54552C16.6575 5.12697 16.1543 5.50961 15.7114 5.50961Z" fill="#2B2A29"/>
</svg>
