<svg width="40" height="32" viewBox="0 0 40 32" fill="none" xmlns="http://www.w3.org/2000/svg">
<path d="M7.96473 4.42647L7.92061 4.3175C7.6873 3.73588 7.5449 3.44306 7.4152 3.38088C7.14645 3.25186 6.43581 3.2786 5.09608 3.32874L4.04781 3.36552C3.65406 3.37621 2.61583 3.37153 1.88111 3.36752L1.23464 3.36483C0.586163 3.36283 0.062699 2.83402 0.064703 2.18555C0.066707 1.53707 0.595515 1.01363 1.24399 1.01563L1.89046 1.0183C2.60045 1.02164 3.60325 1.02632 3.98565 1.0163L5.01317 0.979522C6.72729 0.915356 7.63447 0.880581 8.42869 1.26165C9.27172 1.66544 9.6267 2.27447 10.0927 3.419C12.2032 7.07986 14.1654 7.06784 18.0221 7.04511L36.4348 7.04845C36.9108 7.04377 37.3513 7.11464 37.7484 7.24566L37.8621 7.28979C38.4825 7.51908 38.9839 7.89748 39.3409 8.39754C39.7173 8.92434 39.9212 9.56547 39.9212 10.2821C39.9212 10.7133 39.8423 11.1833 39.6772 11.6807L37.0471 19.5954C36.3773 21.6124 35.7916 22.7389 34.7768 23.4301C33.7533 24.1281 32.5413 24.2337 30.5878 24.2337L16.3668 24.2323C14.7751 24.237 13.2923 23.8266 12.1337 22.92C11.0701 22.0857 10.3079 20.8636 10.0238 19.197C9.79784 17.8706 9.60396 15.7621 9.40141 13.5419C9.08987 10.1344 8.75093 6.44343 8.2502 5.15717L7.96473 4.42647ZM30.2114 25.2198C31.1414 25.2198 31.989 25.5995 32.6034 26.2132C33.2218 26.8323 33.6015 27.68 33.6015 28.6099C33.6015 29.5398 33.2218 30.3868 32.6081 31.0019C31.989 31.6203 31.1414 32 30.2114 32C29.2815 32 28.4345 31.6203 27.8194 31.0066C27.201 30.3868 26.8213 29.5398 26.8213 28.6099C26.8213 27.68 27.201 26.8323 27.8147 26.2179C28.4345 25.5995 29.2815 25.2198 30.2114 25.2198ZM30.9428 27.8779C30.7576 27.6927 30.4989 27.5783 30.2114 27.5783C29.924 27.5783 29.6652 27.6927 29.4821 27.8758C29.2942 28.0637 29.1799 28.3224 29.1799 28.6099C29.1799 28.8974 29.2942 29.1561 29.4774 29.3392C29.6652 29.5271 29.924 29.6414 30.2114 29.6414C30.4989 29.6414 30.7576 29.5271 30.9408 29.3439C31.1286 29.1561 31.243 28.8974 31.243 28.6099C31.243 28.3224 31.1286 28.0637 30.9428 27.8779ZM17.2767 25.2198C18.2066 25.2198 19.0543 25.5995 19.6687 26.2132C20.2871 26.8323 20.6668 27.68 20.6668 28.6099C20.6668 29.5398 20.2871 30.3868 19.6734 31.0019C19.0543 31.6203 18.2066 32 17.2767 32C16.3468 32 15.4997 31.6203 14.8847 31.0066C14.2663 30.3868 13.8866 29.5398 13.8866 28.6099C13.8866 27.68 14.2663 26.8323 14.88 26.2179C15.4997 25.5995 16.3468 25.2198 17.2767 25.2198ZM18.0081 27.8779C17.8229 27.6927 17.5642 27.5783 17.2767 27.5783C16.9892 27.5783 16.7305 27.6927 16.5473 27.8758C16.3595 28.0637 16.2452 28.3224 16.2452 28.6099C16.2452 28.8974 16.3595 29.1561 16.5426 29.3392C16.7305 29.5271 16.9892 29.6414 17.2767 29.6414C17.5642 29.6414 17.8229 29.5271 18.0061 29.3439C18.1939 29.1561 18.3082 28.8974 18.3082 28.6099C18.3082 28.3224 18.1939 28.0637 18.0081 27.8779ZM18.0321 9.39431C15.0779 9.41236 13.0248 9.42441 11.2265 8.27787C11.4217 9.8409 11.5848 11.6199 11.7413 13.3306C11.9365 15.4679 12.123 17.4983 12.3449 18.8012C12.5228 19.8468 12.968 20.5882 13.5804 21.0682C14.293 21.6257 15.2744 21.8785 16.3668 21.8785L30.5878 21.8798C32.076 21.8751 32.9551 21.8236 33.4505 21.486C33.9532 21.1437 34.3202 20.3542 34.8169 18.8587L37.4469 10.944C37.5245 10.7086 37.5626 10.486 37.5626 10.2821C37.5626 10.0635 37.5138 9.88636 37.4249 9.76135C37.3473 9.65237 37.2277 9.56345 37.0726 9.50195L37.0117 9.4839C36.8513 9.43109 36.6581 9.40234 36.4348 9.40234L18.0321 9.39431Z" fill="#2B2A29"/>
</svg>
